<?xml version="1.0" encoding="UTF-8"?>
<!DOCTYPE svg PUBLIC "-//W3C//DTD SVG 1.1//EN" "http://www.w3.org/Graphics/SVG/1.1/DTD/svg11.dtd">
<svg xmlns="http://www.w3.org/2000/svg" version="1.1" width="2000px" height="736px" style="shape-rendering:geometricPrecision; text-rendering:geometricPrecision; image-rendering:optimizeQuality; fill-rule:evenodd; clip-rule:evenodd" xmlns:xlink="http://www.w3.org/1999/xlink">
<g><path style="opacity:0.996" fill="#3467af" d="M 1110.5,-0.5 C 1111.17,-0.5 1111.83,-0.5 1112.5,-0.5C 1137.24,37.3099 1162.24,74.9765 1187.5,112.5C 1152.33,131.921 1116.99,151.088 1081.5,170C 1112.33,171.283 1140.66,180.116 1166.5,196.5C 1165.83,210.5 1165.17,224.5 1164.5,238.5C 1126.46,207.655 1083.46,198.155 1035.5,210C 1004.65,217.245 978.649,232.412 957.5,255.5C 930.403,288.356 921.903,325.689 932,367.5C 946.731,412.224 977.231,439.391 1023.5,449C 1052.62,453.77 1081.29,451.77 1109.5,443C 1129.11,437.192 1147.78,429.358 1165.5,419.5C 1165.17,432.344 1165.5,445.011 1166.5,457.5C 1136.29,472.721 1104.29,482.055 1070.5,485.5C 1070.5,491.833 1070.5,498.167 1070.5,504.5C 1070.5,541.5 1070.5,578.5 1070.5,615.5C 997.311,579.405 924.311,543.072 851.5,506.5C 851.725,494.017 851.725,481.684 851.5,469.5C 907.5,497.167 963.5,524.833 1019.5,552.5C 1024.86,555.599 1030.36,558.599 1036,561.5C 1036.5,536.169 1036.67,510.836 1036.5,485.5C 980.877,480.381 938.877,454.048 910.5,406.5C 875.518,393 840.852,379 806.5,364.5C 838.398,331.024 870.065,297.358 901.5,263.5C 906.933,258.171 912.266,252.671 917.5,247C 895.605,225.602 873.605,204.436 851.5,183.5C 851.888,168.385 852.221,154.052 852.5,140.5C 881.464,165.462 910.13,190.795 938.5,216.5C 939.696,219.221 941.696,220.387 944.5,220C 960.152,205.501 977.819,194.001 997.5,185.5C 990.293,175.728 982.626,166.395 974.5,157.5C 991.541,138.462 1008.21,119.128 1024.5,99.5C 1033.51,89.8206 1042.18,79.8206 1050.5,69.5C 1059.54,59.7954 1068.21,49.7954 1076.5,39.5C 1088.2,26.466 1099.54,13.1327 1110.5,-0.5 Z M 892.5,321.5 C 893.074,336.476 894.24,351.476 896,366.5C 884.402,361.857 872.902,357.024 861.5,352C 872.339,342.328 882.672,332.161 892.5,321.5 Z"/></g>
<g><path style="opacity:0.972" fill="#18376d" d="M 1109.5,-0.5 C 1109.83,-0.5 1110.17,-0.5 1110.5,-0.5C 1099.54,13.1327 1088.2,26.466 1076.5,39.5C 1072.77,36.4411 1068.77,33.7744 1064.5,31.5C 1068.29,26.5401 1072.29,21.7068 1076.5,17C 1087.56,11.1377 1098.56,5.30439 1109.5,-0.5 Z"/></g>
<g><path style="opacity:1" fill="#c59f0c" d="M 1124.5,114.5 C 1113.65,98.802 1102.32,83.4687 1090.5,68.5C 1094.57,62.2528 1099.24,56.4195 1104.5,51C 1106,50.4926 1107.16,50.9926 1108,52.5C 1120.5,69.6667 1133,86.8333 1145.5,104C 1138.47,107.513 1131.47,111.013 1124.5,114.5 Z"/></g>
<g><path style="opacity:0.975" fill="#104a86" d="M 1064.5,31.5 C 1068.77,33.7744 1072.77,36.4411 1076.5,39.5C 1068.21,49.7954 1059.54,59.7954 1050.5,69.5C 1046.83,66.5 1043.5,63.1667 1040.5,59.5C 1048.15,49.8471 1056.15,40.5137 1064.5,31.5 Z"/></g>
<g><path style="opacity:1" fill="#fcc90a" d="M 1090.5,68.5 C 1102.32,83.4687 1113.65,98.802 1124.5,114.5C 1093.65,130.092 1062.65,145.425 1031.5,160.5C 1028.77,157.384 1026.27,154.051 1024,150.5C 1023.33,149.5 1023.33,148.5 1024,147.5C 1045.71,120.725 1067.88,94.3918 1090.5,68.5 Z"/></g>
<g><path style="opacity:0.987" fill="#085e9f" d="M 1040.5,59.5 C 1043.5,63.1667 1046.83,66.5 1050.5,69.5C 1042.18,79.8206 1033.51,89.8206 1024.5,99.5C 1019.99,97.666 1016.32,94.666 1013.5,90.5C 1022.16,79.8456 1031.16,69.5122 1040.5,59.5 Z"/></g>
<g><path style="opacity:0.975" fill="#026eb4" d="M 1013.5,90.5 C 1016.32,94.666 1019.99,97.666 1024.5,99.5C 1008.21,119.128 991.541,138.462 974.5,157.5C 963.087,163.55 951.753,168.884 940.5,173.5C 964.49,145.511 988.823,117.845 1013.5,90.5 Z"/></g>
<g><path style="opacity:0.989" fill="#1d2c5f" d="M 824.5,117.5 C 811.87,143.426 798.703,169.093 785,194.5C 784.199,177.434 784.699,160.434 786.5,143.5C 788.266,140.812 789.933,137.979 791.5,135C 802.237,128.632 813.237,122.799 824.5,117.5 Z"/></g>
<g><path style="opacity:0.996" fill="#3564ad" d="M 852.5,140.5 C 852.221,154.052 851.888,168.385 851.5,183.5C 846.854,179.188 842.187,174.855 837.5,170.5C 832.725,176.595 828.392,182.928 824.5,189.5C 801.6,220.953 778.934,252.619 756.5,284.5C 753.628,249.356 751.294,214.023 749.5,178.5C 749.813,175.753 749.48,173.086 748.5,170.5C 747.893,170.624 747.56,170.957 747.5,171.5C 740.833,173.167 734.167,174.833 727.5,176.5C 728.146,163.788 727.48,151.455 725.5,139.5C 745.329,132.668 765.329,126.002 785.5,119.5C 786.498,127.472 786.831,135.472 786.5,143.5C 784.699,160.434 784.199,177.434 785,194.5C 798.703,169.093 811.87,143.426 824.5,117.5C 824.897,116.475 825.563,116.308 826.5,117C 835.063,125.069 843.73,132.902 852.5,140.5 Z"/></g>
<g><path style="opacity:0.999" fill="#306cb3" d="M 1530.5,295.5 C 1531.49,306.988 1531.83,318.655 1531.5,330.5C 1520.98,337.349 1511.64,345.683 1503.5,355.5C 1471.45,390.716 1462.61,431.049 1477,476.5C 1487.92,501.591 1506.09,518.925 1531.5,528.5C 1531.5,556.833 1531.5,585.167 1531.5,613.5C 1485.46,605.66 1439.46,597.494 1393.5,589C 1390.87,565.108 1387.71,541.274 1384,517.5C 1376.25,531.341 1368.75,545.341 1361.5,559.5C 1348.58,536.661 1335.91,513.661 1323.5,490.5C 1320.18,507.732 1317.51,525.065 1315.5,542.5C 1292.12,539.048 1268.79,535.381 1245.5,531.5C 1244.65,528.751 1243.98,525.917 1243.5,523C 1243.84,514.544 1243.84,506.044 1243.5,497.5C 1255.74,500.014 1268.07,502.014 1280.5,503.5C 1284.48,504.755 1288.64,505.755 1293,506.5C 1293.77,506.355 1294.44,506.022 1295,505.5C 1301.72,463.189 1308.22,420.855 1314.5,378.5C 1315.75,378.577 1316.58,379.244 1317,380.5C 1331.57,412.646 1346.41,444.646 1361.5,476.5C 1363.05,480.598 1364.88,484.598 1367,488.5C 1378.27,459.515 1389.44,430.515 1400.5,401.5C 1400.43,401.062 1400.6,400.728 1401,400.5C 1409.74,454.051 1417.9,507.718 1425.5,561.5C 1449.15,564.941 1472.81,568.274 1496.5,571.5C 1502.94,573.127 1509.61,574.127 1516.5,574.5C 1515.91,567.478 1515.08,560.478 1514,553.5C 1471.09,533.894 1446.43,500.561 1440,453.5C 1436.63,408.943 1449.63,369.943 1479,336.5C 1479.17,334.833 1479.33,333.167 1479.5,331.5C 1471.42,277.822 1463.25,224.156 1455,170.5C 1434.07,168.518 1412.9,167.851 1391.5,168.5C 1391.05,173.863 1390.38,179.196 1389.5,184.5C 1382.31,223.8 1375.31,263.133 1368.5,302.5C 1361.04,264.352 1353.87,226.018 1347,187.5C 1317.91,186.505 1288.74,186.171 1259.5,186.5C 1258.72,192.153 1258.06,197.82 1257.5,203.5C 1253.27,227.191 1248.94,250.857 1244.5,274.5C 1243.7,234.473 1243.37,194.473 1243.5,154.5C 1271.17,154.5 1298.83,154.5 1326.5,154.5C 1326.28,153.325 1326.61,152.325 1327.5,151.5C 1338.75,145.627 1349.91,139.627 1361,133.5C 1401.43,134.497 1441.93,134.83 1482.5,134.5C 1491.62,192.162 1500.79,249.829 1510,307.5C 1516.31,302.594 1523.15,298.594 1530.5,295.5 Z"/></g>
<g><path style="opacity:0.997" fill="#3761ab" d="M 725.5,139.5 C 727.48,151.455 728.146,163.788 727.5,176.5C 698.377,185.62 669.043,194.453 639.5,203C 638.24,205.213 637.574,207.713 637.5,210.5C 637.503,213.025 637.837,215.359 638.5,217.5C 638.5,222.833 638.5,228.167 638.5,233.5C 648.831,231.034 659.165,228.701 669.5,226.5C 673.024,265.814 676.524,305.147 680,344.5C 708.197,373.751 720.53,408.751 717,449.5C 715.353,466.42 711.353,482.754 705,498.5C 700.797,506.068 697.297,513.901 694.5,522C 696.475,540.122 697.808,558.288 698.5,576.5C 706.525,576.115 714.525,575.449 722.5,574.5C 724.167,574.5 725.833,574.5 727.5,574.5C 726.856,585.884 727.523,596.884 729.5,607.5C 710.042,611.019 690.376,614.019 670.5,616.5C 669.163,596.792 667.33,577.125 665,557.5C 628.16,592.322 584.327,608.155 533.5,605C 492.88,599.496 461.547,579.662 439.5,545.5C 432.22,533.333 426.887,520.333 423.5,506.5C 419.751,490.67 418.584,474.67 420,458.5C 415.708,462.057 411.541,465.723 407.5,469.5C 406.833,453.833 406.167,438.167 405.5,422.5C 407.5,420.167 409.5,417.833 411.5,415.5C 434.005,390.836 449.505,362.169 458,329.5C 465.64,294.058 457.64,262.725 434,235.5C 425.603,226.421 416.437,218.421 406.5,211.5C 406.185,197.754 406.519,184.088 407.5,170.5C 475.026,205.549 504.026,260.882 494.5,336.5C 528.325,313.044 565.658,303.711 606.5,308.5C 619.114,310.737 631.447,314.07 643.5,318.5C 641.741,302.202 640.407,285.869 639.5,269.5C 628.755,271.853 618.088,274.52 607.5,277.5C 607.455,265.118 606.788,252.784 605.5,240.5C 605.458,227.314 604.791,214.314 603.5,201.5C 603.5,193.833 603.5,186.167 603.5,178.5C 643.825,164.726 684.492,151.726 725.5,139.5 Z"/></g>
<g><path style="opacity:0.997" fill="#3b5ca7" d="M 407.5,170.5 C 406.519,184.088 406.185,197.754 406.5,211.5C 389.106,200.144 370.106,192.644 349.5,189C 298.37,180.256 248.036,183.589 198.5,199C 154.826,212.007 113.826,230.674 75.5,255C 76.9771,256.812 78.3104,258.645 79.5,260.5C 96.1513,289.802 113.318,318.802 131,347.5C 143.213,341.644 155.379,335.644 167.5,329.5C 207.651,416.803 246.985,504.469 285.5,592.5C 285.5,620.833 285.5,649.167 285.5,677.5C 263.183,628.239 240.85,578.906 218.5,529.5C 211.072,512.317 203.406,495.317 195.5,478.5C 188.07,461.313 180.403,444.313 172.5,427.5C 165.49,410.648 157.99,393.982 150,377.5C 139.367,383.233 128.533,388.567 117.5,393.5C 116.817,393.137 116.15,392.804 115.5,392.5C 110.833,384.5 106.167,376.5 101.5,368.5C 97.7361,361.962 93.7361,355.628 89.5,349.5C 86.5876,342.668 82.9209,336.334 78.5,330.5C 74.9998,323.494 70.9998,316.827 66.5,310.5C 62.7495,303.329 58.7495,296.329 54.5,289.5C 51.6532,283.794 48.3198,278.461 44.5,273.5C 39.0873,263.006 33.4206,252.673 27.5,242.5C 89.0623,198.79 157.062,169.29 231.5,154C 279.389,144.711 327.055,145.711 374.5,157C 386.011,160.428 397.011,164.928 407.5,170.5 Z"/></g>
<g><path style="opacity:1" fill="#3169b1" d="M 1229.5,154.5 C 1234.17,154.5 1238.83,154.5 1243.5,154.5C 1243.37,194.473 1243.7,234.473 1244.5,274.5C 1240.49,301.54 1236.16,328.54 1231.5,355.5C 1231.39,357.374 1232.06,358.874 1233.5,360C 1242.13,366.961 1250.46,374.295 1258.5,382C 1246,394.5 1233.5,407 1221,419.5C 1217.27,442.189 1213.44,464.855 1209.5,487.5C 1209.55,489.1 1209.88,490.6 1210.5,492C 1221.51,493.835 1232.51,495.669 1243.5,497.5C 1243.84,506.044 1243.84,514.544 1243.5,523C 1243.98,525.917 1244.65,528.751 1245.5,531.5C 1220.13,527.626 1194.8,523.626 1169.5,519.5C 1173.66,496.555 1177.16,473.555 1180,450.5C 1175.84,453.497 1171.34,455.83 1166.5,457.5C 1165.5,445.011 1165.17,432.344 1165.5,419.5C 1173.78,413.885 1181.78,407.885 1189.5,401.5C 1195.78,396.893 1201.44,391.559 1206.5,385.5C 1188.06,368.11 1169.4,350.943 1150.5,334C 1144.21,338.111 1138.54,343.278 1133.5,349.5C 1130.89,350.443 1128.89,352.11 1127.5,354.5C 1108.93,366.229 1088.59,371.895 1066.5,371.5C 1098.17,337.5 1129.83,303.5 1161.5,269.5C 1166.6,263.895 1171.94,258.395 1177.5,253C 1173.33,247.998 1169,243.164 1164.5,238.5C 1165.17,224.5 1165.83,210.5 1166.5,196.5C 1174.11,201.447 1181.45,206.78 1188.5,212.5C 1196.77,222.608 1205.27,232.608 1214,242.5C 1217.05,226.884 1219.88,211.218 1222.5,195.5C 1224.37,181.721 1226.71,168.054 1229.5,154.5 Z"/></g>
<g><path style="opacity:0.995" fill="#1d2c5e" d="M 974.5,157.5 C 982.626,166.395 990.293,175.728 997.5,185.5C 977.819,194.001 960.152,205.501 944.5,220C 941.696,220.387 939.696,219.221 938.5,216.5C 946.806,212.012 955.14,207.512 963.5,203C 955.667,193.833 947.833,184.667 940,175.5C 939.308,174.563 939.475,173.897 940.5,173.5C 951.753,168.884 963.087,163.55 974.5,157.5 Z"/></g>
<g><path style="opacity:0.988" fill="#164782" d="M 1229.5,154.5 C 1226.71,168.054 1224.37,181.721 1222.5,195.5C 1213.47,189.32 1204.14,183.653 1194.5,178.5C 1194.7,176.04 1195.37,173.707 1196.5,171.5C 1207.46,165.701 1218.29,159.701 1229,153.5C 1229.4,153.728 1229.57,154.062 1229.5,154.5 Z"/></g>
<g><path style="opacity:1" fill="#c59f0d" d="M 1496.5,571.5 C 1497.77,570.811 1497.77,569.977 1496.5,569C 1448.92,545.696 1424.26,507.362 1422.5,454C 1423.87,415.213 1437.37,381.38 1463,352.5C 1463.17,351 1463.33,349.5 1463.5,348C 1455.3,293.46 1446.97,238.96 1438.5,184.5C 1422.17,184.5 1405.83,184.5 1389.5,184.5C 1390.38,179.196 1391.05,173.863 1391.5,168.5C 1412.9,167.851 1434.07,168.518 1455,170.5C 1463.25,224.156 1471.42,277.822 1479.5,331.5C 1479.33,333.167 1479.17,334.833 1479,336.5C 1449.63,369.943 1436.63,408.943 1440,453.5C 1446.43,500.561 1471.09,533.894 1514,553.5C 1515.08,560.478 1515.91,567.478 1516.5,574.5C 1509.61,574.127 1502.94,573.127 1496.5,571.5 Z"/></g>
<g><path style="opacity:0.997" fill="#2e6fb6" d="M 1636.5,167.5 C 1653.3,170.66 1669.97,174.327 1686.5,178.5C 1687.14,190.216 1686.48,201.549 1684.5,212.5C 1679.18,211.704 1673.85,211.037 1668.5,210.5C 1668.54,219.185 1668.2,227.851 1667.5,236.5C 1667.5,238.833 1667.5,241.167 1667.5,243.5C 1675.87,245.342 1684.2,247.342 1692.5,249.5C 1690.89,270.181 1689.39,290.848 1688,311.5C 1717.05,339.635 1729.72,373.968 1726,414.5C 1720.93,458.989 1701.43,495.656 1667.5,524.5C 1665.12,542.101 1663.45,559.768 1662.5,577.5C 1670.5,578.5 1678.5,579.5 1686.5,580.5C 1686.5,591.5 1686.5,602.5 1686.5,613.5C 1667.2,610.552 1647.86,607.885 1628.5,605.5C 1630.56,586.172 1632.56,566.838 1634.5,547.5C 1632.45,547.402 1630.78,548.069 1629.5,549.5C 1604.21,559.923 1577.88,564.589 1550.5,563.5C 1550.76,568.595 1551.43,573.595 1552.5,578.5C 1554.93,591.757 1556.93,605.091 1558.5,618.5C 1549.48,616.941 1540.48,615.274 1531.5,613.5C 1531.5,585.167 1531.5,556.833 1531.5,528.5C 1578.52,539.497 1619.52,528.497 1654.5,495.5C 1686.37,465.394 1700.21,428.394 1696,384.5C 1684.87,339.04 1656.04,313.873 1609.5,309C 1581.05,307.446 1555.05,314.612 1531.5,330.5C 1531.83,318.655 1531.49,306.988 1530.5,295.5C 1553.2,283.409 1577.53,277.409 1603.5,277.5C 1608.67,278.381 1614,279.048 1619.5,279.5C 1628.23,281.182 1636.89,283.182 1645.5,285.5C 1651.32,287.989 1657.15,290.656 1663,293.5C 1663.83,288.163 1664.67,282.83 1665.5,277.5C 1665.46,276.584 1665.12,275.917 1664.5,275.5C 1655.89,273.296 1647.22,271.296 1638.5,269.5C 1637.53,260.918 1637.2,252.251 1637.5,243.5C 1637.83,218.994 1637.5,194.661 1636.5,170.5C 1636.5,169.5 1636.5,168.5 1636.5,167.5 Z"/></g>
<g><path style="opacity:1" fill="#c59f0f" d="M 747.5,171.5 C 748.167,173.833 748.833,176.167 749.5,178.5C 751.294,214.023 753.628,249.356 756.5,284.5C 750.519,291.785 745.019,299.451 740,307.5C 737.135,267.832 734.635,228.165 732.5,188.5C 731.277,187.386 729.944,187.219 728.5,188C 698.511,196.941 668.511,205.775 638.5,214.5C 638.5,215.5 638.5,216.5 638.5,217.5C 637.837,215.359 637.503,213.025 637.5,210.5C 637.574,207.713 638.24,205.213 639.5,203C 669.043,194.453 698.377,185.62 727.5,176.5C 734.167,174.833 740.833,173.167 747.5,171.5 Z"/></g>
<g><path style="opacity:1" fill="#c59f0b" d="M 851.5,183.5 C 873.605,204.436 895.605,225.602 917.5,247C 912.266,252.671 906.933,258.171 901.5,263.5C 898.437,258.928 894.77,254.761 890.5,251C 868.63,230.295 846.63,209.795 824.5,189.5C 828.392,182.928 832.725,176.595 837.5,170.5C 842.187,174.855 846.854,179.188 851.5,183.5 Z"/></g>
<g><path style="opacity:1" fill="#757d67" d="M 747.5,171.5 C 747.56,170.957 747.893,170.624 748.5,170.5C 749.48,173.086 749.813,175.753 749.5,178.5C 748.833,176.167 748.167,173.833 747.5,171.5 Z"/></g>
<g><path style="opacity:1" fill="#c59f0d" d="M 406.5,211.5 C 416.437,218.421 425.603,226.421 434,235.5C 457.64,262.725 465.64,294.058 458,329.5C 449.505,362.169 434.005,390.836 411.5,415.5C 411.351,414.448 411.517,413.448 412,412.5C 436.972,379.584 447.305,342.584 443,301.5C 435.938,273.19 420.772,250.357 397.5,233C 368.894,212.507 336.894,201.84 301.5,201C 264.858,198.464 228.858,202.131 193.5,212C 156.286,222.406 120.62,236.74 86.5,255C 83.6639,256.391 81.3306,258.224 79.5,260.5C 78.3104,258.645 76.9771,256.812 75.5,255C 113.826,230.674 154.826,212.007 198.5,199C 248.036,183.589 298.37,180.256 349.5,189C 370.106,192.644 389.106,200.144 406.5,211.5 Z"/></g>
<g><path style="opacity:1" fill="#feca06" d="M 1389.5,184.5 C 1405.83,184.5 1422.17,184.5 1438.5,184.5C 1446.97,238.96 1455.3,293.46 1463.5,348C 1463.33,349.5 1463.17,351 1463,352.5C 1437.37,381.38 1423.87,415.213 1422.5,454C 1424.26,507.362 1448.92,545.696 1496.5,569C 1497.77,569.977 1497.77,570.811 1496.5,571.5C 1472.81,568.274 1449.15,564.941 1425.5,561.5C 1417.9,507.718 1409.74,454.051 1401,400.5C 1400.6,400.728 1400.43,401.062 1400.5,401.5C 1395.2,406.297 1390.04,411.297 1385,416.5C 1377.24,436.639 1369.4,456.639 1361.5,476.5C 1346.41,444.646 1331.57,412.646 1317,380.5C 1316.58,379.244 1315.75,378.577 1314.5,378.5C 1309.2,383.297 1304.04,388.297 1299,393.5C 1293.13,430.366 1286.97,467.033 1280.5,503.5C 1268.07,502.014 1255.74,500.014 1243.5,497.5C 1232.51,495.669 1221.51,493.835 1210.5,492C 1209.88,490.6 1209.55,489.1 1209.5,487.5C 1213.44,464.855 1217.27,442.189 1221,419.5C 1233.5,407 1246,394.5 1258.5,382C 1250.46,374.295 1242.13,366.961 1233.5,360C 1232.06,358.874 1231.39,357.374 1231.5,355.5C 1236.16,328.54 1240.49,301.54 1244.5,274.5C 1248.94,250.857 1253.27,227.191 1257.5,203.5C 1281.84,203.333 1306.17,203.5 1330.5,204C 1337.69,242.827 1345.02,281.661 1352.5,320.5C 1357.82,315.682 1362.99,310.682 1368,305.5C 1368.48,304.552 1368.65,303.552 1368.5,302.5C 1375.31,263.133 1382.31,223.8 1389.5,184.5 Z"/></g>
<g><path style="opacity:1" fill="#feca06" d="M 756.5,284.5 C 778.934,252.619 801.6,220.953 824.5,189.5C 846.63,209.795 868.63,230.295 890.5,251C 894.77,254.761 898.437,258.928 901.5,263.5C 870.065,297.358 838.398,331.024 806.5,364.5C 801.397,370.105 796.064,375.605 790.5,381C 825.167,395 859.833,409 894.5,423C 922.84,470.69 964.84,496.856 1020.5,501.5C 1020.83,518.675 1020.5,535.675 1019.5,552.5C 963.5,524.833 907.5,497.167 851.5,469.5C 824.023,455.261 796.357,441.261 768.5,427.5C 763.564,432.938 758.397,438.271 753,443.5C 752.5,485.499 752.333,527.499 752.5,569.5C 742.502,571.166 732.502,572.833 722.5,574.5C 714.525,575.449 706.525,576.115 698.5,576.5C 697.808,558.288 696.475,540.122 694.5,522C 697.297,513.901 700.797,506.068 705,498.5C 711.353,482.754 715.353,466.42 717,449.5C 720.53,408.751 708.197,373.751 680,344.5C 676.524,305.147 673.024,265.814 669.5,226.5C 659.165,228.701 648.831,231.034 638.5,233.5C 638.5,228.167 638.5,222.833 638.5,217.5C 638.5,216.5 638.5,215.5 638.5,214.5C 668.511,205.775 698.511,196.941 728.5,188C 729.944,187.219 731.277,187.386 732.5,188.5C 734.635,228.165 737.135,267.832 740,307.5C 745.019,299.451 750.519,291.785 756.5,284.5 Z"/></g>
<g><path style="opacity:1" fill="#c49f10" d="M 1368.5,302.5 C 1368.65,303.552 1368.48,304.552 1368,305.5C 1362.99,310.682 1357.82,315.682 1352.5,320.5C 1345.02,281.661 1337.69,242.827 1330.5,204C 1306.17,203.5 1281.84,203.333 1257.5,203.5C 1258.06,197.82 1258.72,192.153 1259.5,186.5C 1288.74,186.171 1317.91,186.505 1347,187.5C 1353.87,226.018 1361.04,264.352 1368.5,302.5 Z"/></g>
<g><path style="opacity:1" fill="#feca06" d="M 411.5,415.5 C 409.5,417.833 407.5,420.167 405.5,422.5C 388.261,440.079 369.261,455.412 348.5,468.5C 342.32,472.757 336.32,477.257 330.5,482C 345.596,537.792 360.596,593.625 375.5,649.5C 357.195,655.49 338.861,661.49 320.5,667.5C 308.528,642.56 296.861,617.56 285.5,592.5C 246.985,504.469 207.651,416.803 167.5,329.5C 155.379,335.644 143.213,341.644 131,347.5C 113.318,318.802 96.1513,289.802 79.5,260.5C 81.3306,258.224 83.6639,256.391 86.5,255C 120.62,236.74 156.286,222.406 193.5,212C 228.858,202.131 264.858,198.464 301.5,201C 336.894,201.84 368.894,212.507 397.5,233C 420.772,250.357 435.938,273.19 443,301.5C 447.305,342.584 436.972,379.584 412,412.5C 411.517,413.448 411.351,414.448 411.5,415.5 Z M 331.5,326.5 C 349.441,329.164 358.107,339.664 357.5,358C 357.271,364.878 355.604,371.378 352.5,377.5C 352.624,378.107 352.957,378.44 353.5,378.5C 352.207,380.296 350.707,381.963 349,383.5C 342.389,364.717 336.555,345.717 331.5,326.5 Z"/></g>
<g><path style="opacity:0.996" fill="#193e76" d="M 1194.5,178.5 C 1204.14,183.653 1213.47,189.32 1222.5,195.5C 1219.88,211.218 1217.05,226.884 1214,242.5C 1205.27,232.608 1196.77,222.608 1188.5,212.5C 1190.71,201.236 1192.71,189.903 1194.5,178.5 Z"/></g>
<g><path style="opacity:0.987" fill="#1a376c" d="M 1636.5,167.5 C 1636.5,168.5 1636.5,169.5 1636.5,170.5C 1636.5,183.833 1636.5,197.167 1636.5,210.5C 1625.18,211.271 1613.84,211.938 1602.5,212.5C 1602.33,203.494 1602.5,194.494 1603,185.5C 1613.82,178.84 1624.99,172.84 1636.5,167.5 Z"/></g>
<g><path style="opacity:0.993" fill="#18376d" d="M 603.5,178.5 C 603.5,186.167 603.5,193.833 603.5,201.5C 604.029,205.351 603.362,208.851 601.5,212C 590.846,213.35 580.179,214.517 569.5,215.5C 568.818,209.173 568.652,202.839 569,196.5C 580.317,190.092 591.817,184.092 603.5,178.5 Z"/></g>
<g><path style="opacity:1" fill="#c59f0d" d="M 1164.5,238.5 C 1169,243.164 1173.33,247.998 1177.5,253C 1171.94,258.395 1166.6,263.895 1161.5,269.5C 1138.5,241.659 1108.83,225.826 1072.5,222C 1029.92,219.144 991.586,230.31 957.5,255.5C 978.649,232.412 1004.65,217.245 1035.5,210C 1083.46,198.155 1126.46,207.655 1164.5,238.5 Z"/></g>
<g><path style="opacity:0.993" fill="#2c72b8" d="M 1686.5,178.5 C 1730.22,187.678 1773.89,197.178 1817.5,207C 1818.67,207.5 1819.5,208.333 1820,209.5C 1821.36,215.14 1822.53,220.806 1823.5,226.5C 1826.02,242.292 1829.19,257.958 1833,273.5C 1838.05,253.869 1842.88,234.202 1847.5,214.5C 1897.92,226.1 1948.58,238.1 1999.5,250.5C 1999.5,255.833 1999.5,261.167 1999.5,266.5C 1951.03,411.907 1902.36,557.241 1853.5,702.5C 1815.61,690.353 1777.61,678.186 1739.5,666C 1738.51,650.911 1738.18,635.745 1738.5,620.5C 1721.03,618.908 1703.69,616.575 1686.5,613.5C 1686.5,602.5 1686.5,591.5 1686.5,580.5C 1697.06,582.654 1707.72,584.321 1718.5,585.5C 1722.64,586.563 1726.97,587.23 1731.5,587.5C 1741.44,528.238 1752.1,469.238 1763.5,410.5C 1764.98,487.513 1766.98,564.513 1769.5,641.5C 1786.73,646.913 1804.07,651.913 1821.5,656.5C 1824.24,657.943 1827.24,658.943 1830.5,659.5C 1831.65,659.182 1832.48,658.516 1833,657.5C 1875.06,529.808 1917.23,402.141 1959.5,274.5C 1929.34,266.895 1899.01,259.895 1868.5,253.5C 1867.32,259.87 1865.99,266.204 1864.5,272.5C 1852.19,322.423 1840.19,372.423 1828.5,422.5C 1814.75,360.029 1801.25,297.362 1788,234.5C 1753.33,227.468 1718.83,220.135 1684.5,212.5C 1686.48,201.549 1687.14,190.216 1686.5,178.5 Z"/></g>
<g><path style="opacity:1" fill="#c69f0c" d="M 1684.5,212.5 C 1718.83,220.135 1753.33,227.468 1788,234.5C 1801.25,297.362 1814.75,360.029 1828.5,422.5C 1823.88,428.674 1818.54,434.341 1812.5,439.5C 1799.07,376.51 1785.57,313.51 1772,250.5C 1737.53,243.44 1703.03,236.44 1668.5,229.5C 1668.8,232.059 1668.47,234.393 1667.5,236.5C 1668.2,227.851 1668.54,219.185 1668.5,210.5C 1673.85,211.037 1679.18,211.704 1684.5,212.5 Z"/></g>
<g><path style="opacity:0.991" fill="#1d2d5f" d="M 1847.5,214.5 C 1842.88,234.202 1838.05,253.869 1833,273.5C 1829.19,257.958 1826.02,242.292 1823.5,226.5C 1831.53,222.487 1839.53,218.487 1847.5,214.5 Z"/></g>
<g><path style="opacity:1" fill="#feca06" d="M 1161.5,269.5 C 1129.83,303.5 1098.17,337.5 1066.5,371.5C 1061.4,377.105 1056.06,382.605 1050.5,388C 1081.5,388.734 1107.17,377.568 1127.5,354.5C 1128.89,352.11 1130.89,350.443 1133.5,349.5C 1150.97,365.468 1168.64,381.301 1186.5,397C 1188.14,398.129 1189.14,399.629 1189.5,401.5C 1181.78,407.885 1173.78,413.885 1165.5,419.5C 1147.78,429.358 1129.11,437.192 1109.5,443C 1081.29,451.77 1052.62,453.77 1023.5,449C 977.231,439.391 946.731,412.224 932,367.5C 921.903,325.689 930.403,288.356 957.5,255.5C 991.586,230.31 1029.92,219.144 1072.5,222C 1108.83,225.826 1138.5,241.659 1161.5,269.5 Z M 1059.5,292.5 C 1046.24,307.989 1032.74,323.323 1019,338.5C 1011.67,322.302 1013.5,307.302 1024.5,293.5C 1036.14,289.236 1047.81,288.903 1059.5,292.5 Z"/></g>
<g><path style="opacity:1" fill="#feca06" d="M 1828.5,422.5 C 1840.19,372.423 1852.19,322.423 1864.5,272.5C 1890.98,277.967 1917.31,283.967 1943.5,290.5C 1903.4,412.797 1862.73,534.797 1821.5,656.5C 1804.07,651.913 1786.73,646.913 1769.5,641.5C 1766.98,564.513 1764.98,487.513 1763.5,410.5C 1763.63,409.761 1763.46,409.094 1763,408.5C 1757.97,413.867 1752.63,418.867 1747,423.5C 1737.5,477.511 1728,531.511 1718.5,585.5C 1707.72,584.321 1697.06,582.654 1686.5,580.5C 1678.5,579.5 1670.5,578.5 1662.5,577.5C 1663.45,559.768 1665.12,542.101 1667.5,524.5C 1701.43,495.656 1720.93,458.989 1726,414.5C 1729.72,373.968 1717.05,339.635 1688,311.5C 1689.39,290.848 1690.89,270.181 1692.5,249.5C 1684.2,247.342 1675.87,245.342 1667.5,243.5C 1667.5,241.167 1667.5,238.833 1667.5,236.5C 1668.47,234.393 1668.8,232.059 1668.5,229.5C 1703.03,236.44 1737.53,243.44 1772,250.5C 1785.57,313.51 1799.07,376.51 1812.5,439.5C 1818.54,434.341 1823.88,428.674 1828.5,422.5 Z"/></g>
<g><path style="opacity:0.999" fill="#174b86" d="M 1636.5,170.5 C 1637.5,194.661 1637.83,218.994 1637.5,243.5C 1626.22,244.55 1614.88,245.217 1603.5,245.5C 1602.75,234.516 1602.42,223.516 1602.5,212.5C 1613.84,211.938 1625.18,211.271 1636.5,210.5C 1636.5,197.167 1636.5,183.833 1636.5,170.5 Z"/></g>
<g><path style="opacity:0.987" fill="#104b86" d="M 603.5,201.5 C 604.791,214.314 605.458,227.314 605.5,240.5C 594.48,241.41 583.48,242.576 572.5,244C 571.934,244.995 571.267,245.828 570.5,246.5C 570.412,236.157 570.078,225.824 569.5,215.5C 580.179,214.517 590.846,213.35 601.5,212C 603.362,208.851 604.029,205.351 603.5,201.5 Z"/></g>
<g><path style="opacity:1" fill="#c6a00c" d="M 1821.5,656.5 C 1862.73,534.797 1903.4,412.797 1943.5,290.5C 1917.31,283.967 1890.98,277.967 1864.5,272.5C 1865.99,266.204 1867.32,259.87 1868.5,253.5C 1899.01,259.895 1929.34,266.895 1959.5,274.5C 1917.23,402.141 1875.06,529.808 1833,657.5C 1832.48,658.516 1831.65,659.182 1830.5,659.5C 1827.24,658.943 1824.24,657.943 1821.5,656.5 Z"/></g>
<g><path style="opacity:0.992" fill="#3767ae" d="M 1015.5,370.5 C 990.617,347.586 985.117,320.586 999,289.5C 1002,285.008 1005.16,280.675 1008.5,276.5C 1034.79,252.607 1063.12,250.107 1093.5,269C 1096.38,272.044 1099.38,274.877 1102.5,277.5C 1074.48,309.018 1046.65,340.685 1019,372.5C 1017.89,371.695 1016.72,371.028 1015.5,370.5 Z M 1059.5,292.5 C 1046.24,307.989 1032.74,323.323 1019,338.5C 1011.67,322.302 1013.5,307.302 1024.5,293.5C 1036.14,289.236 1047.81,288.903 1059.5,292.5 Z"/></g>
<g><path style="opacity:0.991" fill="#125a9a" d="M 1637.5,243.5 C 1637.2,252.251 1637.53,260.918 1638.5,269.5C 1632,272.582 1625.67,275.915 1619.5,279.5C 1614,279.048 1608.67,278.381 1603.5,277.5C 1603.5,266.833 1603.5,256.167 1603.5,245.5C 1614.88,245.217 1626.22,244.55 1637.5,243.5 Z"/></g>
<g><path style="opacity:0.999" fill="#0662a4" d="M 605.5,240.5 C 606.788,252.784 607.455,265.118 607.5,277.5C 596.482,282.674 585.815,288.34 575.5,294.5C 575.44,295.043 575.107,295.376 574.5,295.5C 573.686,293.234 573.186,290.9 573,288.5C 572.431,274.454 571.598,260.454 570.5,246.5C 571.267,245.828 571.934,244.995 572.5,244C 583.48,242.576 594.48,241.41 605.5,240.5 Z"/></g>
<g><path style="opacity:0.992" fill="#1b3164" d="M 27.5,242.5 C 33.4206,252.673 39.0873,263.006 44.5,273.5C 33.1667,279.167 21.8333,284.833 10.5,290.5C 7.08248,284.663 3.41581,278.996 -0.5,273.5C -0.5,272.167 -0.5,270.833 -0.5,269.5C 8.83333,260.5 18.1667,251.5 27.5,242.5 Z"/></g>
<g><path style="opacity:0.989" fill="#1d2c5f" d="M 606.5,308.5 C 606.47,301.312 605.637,294.312 604,287.5C 594.641,290.381 585.141,292.715 575.5,294.5C 585.815,288.34 596.482,282.674 607.5,277.5C 618.088,274.52 628.755,271.853 639.5,269.5C 640.407,285.869 641.741,302.202 643.5,318.5C 631.447,314.07 619.114,310.737 606.5,308.5 Z"/></g>
<g><path style="opacity:1" fill="#1d2d5f" d="M 1638.5,269.5 C 1647.22,271.296 1655.89,273.296 1664.5,275.5C 1658.65,279.594 1652.32,282.927 1645.5,285.5C 1636.89,283.182 1628.23,281.182 1619.5,279.5C 1625.67,275.915 1632,272.582 1638.5,269.5 Z"/></g>
<g><path style="opacity:1" fill="#c6a00c" d="M 1008.5,276.5 C 1005.16,280.675 1002,285.008 999,289.5C 985.117,320.586 990.617,347.586 1015.5,370.5C 1011.23,372.917 1007.07,375.583 1003,378.5C 981.37,356.018 975.703,330.018 986,300.5C 991.728,289.059 999.395,279.059 1009,270.5C 1009.12,272.107 1008.62,273.607 1007.5,275C 1007.57,275.765 1007.9,276.265 1008.5,276.5 Z"/></g>
<g><path style="opacity:1" fill="#1e2d60" d="M 1208.5,274.5 C 1209.04,274.56 1209.38,274.893 1209.5,275.5C 1206.29,293.452 1203.29,311.452 1200.5,329.5C 1192.51,322.841 1184.84,315.841 1177.5,308.5C 1187.86,297.147 1198.19,285.813 1208.5,274.5 Z"/></g>
<g><path style="opacity:1" fill="#302571" d="M 1664.5,275.5 C 1665.12,275.917 1665.46,276.584 1665.5,277.5C 1664.67,282.83 1663.83,288.163 1663,293.5C 1657.15,290.656 1651.32,287.989 1645.5,285.5C 1652.32,282.927 1658.65,279.594 1664.5,275.5 Z"/></g>
<g><path style="opacity:0.963" fill="#7b7e68" d="M 1059.5,292.5 C 1047.81,288.903 1036.14,289.236 1024.5,293.5C 1036.77,279.514 1051.77,275.681 1069.5,282C 1065.93,285.396 1062.6,288.896 1059.5,292.5 Z"/></g>
<g><path style="opacity:0.992" fill="#163a71" d="M 44.5,273.5 C 48.3198,278.461 51.6532,283.794 54.5,289.5C 44.0881,296.549 33.0881,302.883 21.5,308.5C 17.3457,302.87 13.679,296.87 10.5,290.5C 21.8333,284.833 33.1667,279.167 44.5,273.5 Z"/></g>
<g><path style="opacity:0.995" fill="#3c5aa5" d="M 337.5,427.5 C 336.417,427.539 335.417,427.873 334.5,428.5C 320.459,385.878 307.126,343.045 294.5,300C 295.416,299.722 296.082,299.222 296.5,298.5C 316.615,287.94 337.615,285.774 359.5,292C 388.113,304.046 399.947,325.546 395,356.5C 392.828,370.507 387.161,382.84 378,393.5C 365.773,406.579 352.273,417.912 337.5,427.5 Z M 331.5,326.5 C 349.441,329.164 358.107,339.664 357.5,358C 357.271,364.878 355.604,371.378 352.5,377.5C 352.624,378.107 352.957,378.44 353.5,378.5C 352.207,380.296 350.707,381.963 349,383.5C 342.389,364.717 336.555,345.717 331.5,326.5 Z"/></g>
<g><path style="opacity:1" fill="#c59f0e" d="M 296.5,298.5 C 296.082,299.222 295.416,299.722 294.5,300C 307.126,343.045 320.459,385.878 334.5,428.5C 335.417,427.873 336.417,427.539 337.5,427.5C 333.101,431.878 328.101,435.545 322.5,438.5C 308.796,396.22 295.796,353.72 283.5,311C 283.625,309.373 284.125,307.873 285,306.5C 288.009,302.661 291.176,298.994 294.5,295.5C 295.176,296.602 295.842,297.602 296.5,298.5 Z"/></g>
<g><path style="opacity:0.991" fill="#12447e" d="M 54.5,289.5 C 58.7495,296.329 62.7495,303.329 66.5,310.5C 64.6694,312.776 62.3361,314.609 59.5,316C 50.6494,320.258 41.9827,324.758 33.5,329.5C 29.2505,322.671 25.2505,315.671 21.5,308.5C 33.0881,302.883 44.0881,296.549 54.5,289.5 Z"/></g>
<g><path style="opacity:1" fill="#c59f0d" d="M 1654.5,495.5 C 1663.5,481.838 1670.66,467.172 1676,451.5C 1686.72,417.25 1681.39,385.917 1660,357.5C 1636.84,332.887 1608.34,322.054 1574.5,325C 1547.82,328.494 1524.15,338.66 1503.5,355.5C 1511.64,345.683 1520.98,337.349 1531.5,330.5C 1555.05,314.612 1581.05,307.446 1609.5,309C 1656.04,313.873 1684.87,339.04 1696,384.5C 1700.21,428.394 1686.37,465.394 1654.5,495.5 Z"/></g>
<g><path style="opacity:0.976" fill="#7b7e68" d="M 361.5,369.5 C 360.407,371.349 359.074,373.016 357.5,374.5C 356.833,374.5 356.5,374.833 356.5,375.5C 355.833,375.5 355.5,375.833 355.5,376.5C 354.833,376.5 354.5,376.833 354.5,377.5C 353.833,377.5 353.5,377.833 353.5,378.5C 352.957,378.44 352.624,378.107 352.5,377.5C 355.604,371.378 357.271,364.878 357.5,358C 358.107,339.664 349.441,329.164 331.5,326.5C 330.883,326.389 330.383,326.056 330,325.5C 329.321,322.45 328.488,319.45 327.5,316.5C 338.402,314.247 348.735,315.747 358.5,321C 369.599,331.481 372.433,343.981 367,358.5C 365.681,362.472 363.847,366.139 361.5,369.5 Z"/></g>
<g><path style="opacity:0.994" fill="#0e4e8a" d="M 66.5,310.5 C 70.9998,316.827 74.9998,323.494 78.5,330.5C 67.3367,336.581 56.3367,342.914 45.5,349.5C 41.1373,343.118 37.1373,336.451 33.5,329.5C 41.9827,324.758 50.6494,320.258 59.5,316C 62.3361,314.609 64.6694,312.776 66.5,310.5 Z"/></g>
<g><path style="opacity:1" fill="#feca06" d="M 1654.5,495.5 C 1619.52,528.497 1578.52,539.497 1531.5,528.5C 1506.09,518.925 1487.92,501.591 1477,476.5C 1462.61,431.049 1471.45,390.716 1503.5,355.5C 1524.15,338.66 1547.82,328.494 1574.5,325C 1608.34,322.054 1636.84,332.887 1660,357.5C 1681.39,385.917 1686.72,417.25 1676,451.5C 1670.66,467.172 1663.5,481.838 1654.5,495.5 Z"/></g>
<g><path style="opacity:1" fill="#3566ae" d="M 1597.5,332.5 C 1591.38,335.515 1585.38,339.015 1579.5,343C 1576.95,346.044 1574.62,349.211 1572.5,352.5C 1566.39,373.128 1573.39,387.628 1593.5,396C 1603.83,398.501 1613.83,397.668 1623.5,393.5C 1636.53,386.774 1642.86,376.107 1642.5,361.5C 1651.99,379.667 1651.49,397.667 1641,415.5C 1638,419.334 1634.83,423 1631.5,426.5C 1612.38,441.822 1591.05,445.655 1567.5,438C 1540.22,425.61 1528.38,404.443 1532,374.5C 1534.54,366.414 1538.37,359.081 1543.5,352.5C 1558.19,337.377 1576.19,330.71 1597.5,332.5 Z"/></g>
<g><path style="opacity:1" fill="#c59f0b" d="M 1189.5,401.5 C 1189.14,399.629 1188.14,398.129 1186.5,397C 1168.64,381.301 1150.97,365.468 1133.5,349.5C 1138.54,343.278 1144.21,338.111 1150.5,334C 1169.4,350.943 1188.06,368.11 1206.5,385.5C 1201.44,391.559 1195.78,396.893 1189.5,401.5 Z"/></g>
<g><path style="opacity:1" fill="#c39e17" d="M 1597.5,332.5 C 1598.87,332.343 1600.21,332.51 1601.5,333C 1602.45,333.718 1602.62,334.551 1602,335.5C 1597.5,340 1593,344.5 1588.5,349C 1583.23,350.481 1577.89,351.648 1572.5,352.5C 1574.62,349.211 1576.95,346.044 1579.5,343C 1585.38,339.015 1591.38,335.515 1597.5,332.5 Z"/></g>
<g><path style="opacity:1" fill="#c69f0d" d="M 644.5,531.5 C 644.389,530.883 644.056,530.383 643.5,530C 668.993,496.217 676.826,458.717 667,417.5C 650.433,374.474 618.933,352.141 572.5,350.5C 541.549,351.814 513.882,361.814 489.5,380.5C 522,344.719 562.333,330.219 610.5,337C 653.527,347.694 679.027,374.861 687,418.5C 690.134,462.861 675.968,500.528 644.5,531.5 Z"/></g>
<g><path style="opacity:0.992" fill="#0a5897" d="M 78.5,330.5 C 82.9209,336.334 86.5876,342.668 89.5,349.5C 78.988,356.259 67.988,362.259 56.5,367.5C 52.3346,361.842 48.6679,355.842 45.5,349.5C 56.3367,342.914 67.3367,336.581 78.5,330.5 Z"/></g>
<g><path style="opacity:1" fill="#feca06" d="M 644.5,531.5 C 608.983,565.837 566.983,578.004 518.5,568C 479.088,553.914 456.588,526.081 451,484.5C 448.543,444.024 461.376,409.357 489.5,380.5C 513.882,361.814 541.549,351.814 572.5,350.5C 618.933,352.141 650.433,374.474 667,417.5C 676.826,458.717 668.993,496.217 643.5,530C 644.056,530.383 644.389,530.883 644.5,531.5 Z"/></g>
<g><path style="opacity:1" fill="#c59f0d" d="M 1543.5,352.5 C 1538.37,359.081 1534.54,366.414 1532,374.5C 1528.38,404.443 1540.22,425.61 1567.5,438C 1591.05,445.655 1612.38,441.822 1631.5,426.5C 1631.29,427.922 1630.79,429.255 1630,430.5C 1612.19,451.156 1589.69,460.323 1562.5,458C 1530.41,449.966 1514.58,429.466 1515,396.5C 1519.57,378.471 1529.07,363.804 1543.5,352.5 Z"/></g>
<g><path style="opacity:1" fill="#c49f11" d="M 1127.5,354.5 C 1107.17,377.568 1081.5,388.734 1050.5,388C 1056.06,382.605 1061.4,377.105 1066.5,371.5C 1088.59,371.895 1108.93,366.229 1127.5,354.5 Z"/></g>
<g><path style="opacity:0.993" fill="#0661a3" d="M 89.5,349.5 C 93.7361,355.628 97.7361,361.962 101.5,368.5C 90.1667,374.5 78.8333,380.5 67.5,386.5C 63.0791,380.666 59.4124,374.332 56.5,367.5C 67.988,362.259 78.988,356.259 89.5,349.5 Z"/></g>
<g><path style="opacity:1" fill="#c59f0e" d="M 1642.5,361.5 C 1642.86,376.107 1636.53,386.774 1623.5,393.5C 1625.1,386.984 1625.94,380.317 1626,373.5C 1630.5,369 1635,364.5 1639.5,360C 1641,359.415 1642,359.915 1642.5,361.5 Z"/></g>
<g><path style="opacity:1" fill="#c29e17" d="M 585.5,361.5 C 587.167,361.5 588.833,361.5 590.5,361.5C 590.649,362.552 590.483,363.552 590,364.5C 585.5,369 581,373.5 576.5,378C 571.724,378.861 567.057,380.027 562.5,381.5C 567.977,372.204 575.977,366.038 586.5,363C 585.944,362.617 585.611,362.117 585.5,361.5 Z"/></g>
<g><path style="opacity:1" fill="#3862aa" d="M 585.5,361.5 C 585.611,362.117 585.944,362.617 586.5,363C 575.977,366.038 567.977,372.204 562.5,381.5C 556.226,405.919 565.559,420.919 590.5,426.5C 590.5,441.167 590.5,455.833 590.5,470.5C 555.97,474 533.47,459.334 523,426.5C 519.595,408.437 524.095,392.77 536.5,379.5C 550.291,366.79 566.624,360.79 585.5,361.5 Z"/></g>
<g><path style="opacity:1" fill="#c69f0a" d="M 806.5,364.5 C 840.852,379 875.518,393 910.5,406.5C 938.877,454.048 980.877,480.381 1036.5,485.5C 1036.67,510.836 1036.5,536.169 1036,561.5C 1030.36,558.599 1024.86,555.599 1019.5,552.5C 1020.5,535.675 1020.83,518.675 1020.5,501.5C 964.84,496.856 922.84,470.69 894.5,423C 859.833,409 825.167,395 790.5,381C 796.064,375.605 801.397,370.105 806.5,364.5 Z"/></g>
<g><path style="opacity:0.993" fill="#026cb1" d="M 101.5,368.5 C 106.167,376.5 110.833,384.5 115.5,392.5C 107.541,402.462 99.2072,412.128 90.5,421.5C 89.2073,422.645 88.0407,422.311 87,420.5C 80.2236,409.275 73.7236,397.942 67.5,386.5C 78.8333,380.5 90.1667,374.5 101.5,368.5 Z"/></g>
<g><path style="opacity:1" fill="#c6a00c" d="M 1314.5,378.5 C 1308.22,420.855 1301.72,463.189 1295,505.5C 1294.44,506.022 1293.77,506.355 1293,506.5C 1288.64,505.755 1284.48,504.755 1280.5,503.5C 1286.97,467.033 1293.13,430.366 1299,393.5C 1304.04,388.297 1309.2,383.297 1314.5,378.5 Z"/></g>
<g><path style="opacity:1" fill="#c69f0c" d="M 536.5,379.5 C 524.095,392.77 519.595,408.437 523,426.5C 533.47,459.334 555.97,474 590.5,470.5C 602.423,468.534 613.09,463.868 622.5,456.5C 612.314,471.454 598.314,481.287 580.5,486C 548.921,491.625 525.421,480.459 510,452.5C 502.33,433.231 504.663,415.231 517,398.5C 522.641,391.147 529.141,384.814 536.5,379.5 Z"/></g>
<g><path style="opacity:1" fill="#c59f0f" d="M 632.5,388.5 C 632.943,403.613 626.61,414.946 613.5,422.5C 615.518,415.578 616.018,408.578 615,401.5C 619.833,396.667 624.667,391.833 629.5,387C 630.998,386.415 631.998,386.915 632.5,388.5 Z"/></g>
<g><path style="opacity:1" fill="#c59f0f" d="M 1400.5,401.5 C 1389.44,430.515 1378.27,459.515 1367,488.5C 1364.88,484.598 1363.05,480.598 1361.5,476.5C 1369.4,456.639 1377.24,436.639 1385,416.5C 1390.04,411.297 1395.2,406.297 1400.5,401.5 Z"/></g>
<g><path style="opacity:1" fill="#c6a00c" d="M 1763.5,410.5 C 1752.1,469.238 1741.44,528.238 1731.5,587.5C 1726.97,587.23 1722.64,586.563 1718.5,585.5C 1728,531.511 1737.5,477.511 1747,423.5C 1752.63,418.867 1757.97,413.867 1763,408.5C 1763.46,409.094 1763.63,409.761 1763.5,410.5 Z"/></g>
<g><path style="opacity:0.992" fill="#135291" d="M 172.5,427.5 C 160.713,432.227 149.046,437.227 137.5,442.5C 132.259,431.311 127.092,419.977 122,408.5C 111.683,413.327 101.183,417.66 90.5,421.5C 99.2072,412.128 107.541,402.462 115.5,392.5C 116.15,392.804 116.817,393.137 117.5,393.5C 128.533,388.567 139.367,383.233 150,377.5C 157.99,393.982 165.49,410.648 172.5,427.5 Z"/></g>
<g><path style="opacity:1" fill="#395ea9" d="M 405.5,422.5 C 406.167,438.167 406.833,453.833 407.5,469.5C 402.021,474.136 396.354,478.636 390.5,483C 389.941,483.725 389.608,484.558 389.5,485.5C 392.356,496.595 395.356,507.595 398.5,518.5C 401.896,533.424 405.896,548.091 410.5,562.5C 410.5,562.833 410.5,563.167 410.5,563.5C 419.185,598.239 428.185,632.906 437.5,667.5C 437.043,668.298 436.376,668.631 435.5,668.5C 390.033,682.433 344.7,696.767 299.5,711.5C 294.84,700.177 290.173,688.844 285.5,677.5C 285.5,649.167 285.5,620.833 285.5,592.5C 296.861,617.56 308.528,642.56 320.5,667.5C 338.861,661.49 357.195,655.49 375.5,649.5C 381.391,647.425 387.391,645.758 393.5,644.5C 378.498,585.824 363.498,527.157 348.5,468.5C 369.261,455.412 388.261,440.079 405.5,422.5 Z"/></g>
<g><path style="opacity:1" fill="#316eb3" d="M 632.5,388.5 C 645.224,413.494 641.89,436.161 622.5,456.5C 613.09,463.868 602.423,468.534 590.5,470.5C 590.5,455.833 590.5,441.167 590.5,426.5C 598.58,427.293 606.247,425.959 613.5,422.5C 626.61,414.946 632.943,403.613 632.5,388.5 Z"/></g>
<g><path style="opacity:0.998" fill="#3564ad" d="M 768.5,427.5 C 796.357,441.261 824.023,455.261 851.5,469.5C 851.725,481.684 851.725,494.017 851.5,506.5C 834.612,499.057 817.945,491.057 801.5,482.5C 800.501,494.148 800.168,505.814 800.5,517.5C 800.5,544.167 800.5,570.833 800.5,597.5C 776.874,601.092 753.207,604.425 729.5,607.5C 727.523,596.884 726.856,585.884 727.5,574.5C 725.833,574.5 724.167,574.5 722.5,574.5C 732.502,572.833 742.502,571.166 752.5,569.5C 757.822,569.02 763.155,568.687 768.5,568.5C 768.5,521.5 768.5,474.5 768.5,427.5 Z"/></g>
<g><path style="opacity:1" fill="#c69f09" d="M 768.5,427.5 C 768.5,474.5 768.5,521.5 768.5,568.5C 763.155,568.687 757.822,569.02 752.5,569.5C 752.333,527.499 752.5,485.499 753,443.5C 758.397,438.271 763.564,432.938 768.5,427.5 Z"/></g>
<g><path style="opacity:0.99" fill="#1d2c5e" d="M 1169.5,519.5 C 1158.45,525.692 1147.12,531.358 1135.5,536.5C 1139,516.499 1142.17,496.499 1145,476.5C 1122.13,491.068 1097.3,500.401 1070.5,504.5C 1070.5,498.167 1070.5,491.833 1070.5,485.5C 1104.29,482.055 1136.29,472.721 1166.5,457.5C 1171.34,455.83 1175.84,453.497 1180,450.5C 1177.16,473.555 1173.66,496.555 1169.5,519.5 Z"/></g>
<g><path style="opacity:0.994" fill="#17437d" d="M 172.5,427.5 C 180.403,444.313 188.07,461.313 195.5,478.5C 183.5,483.5 171.5,488.5 159.5,493.5C 152.167,476.5 144.833,459.5 137.5,442.5C 149.046,437.227 160.713,432.227 172.5,427.5 Z"/></g>
<g><path style="opacity:1" fill="#c59f0d" d="M 348.5,468.5 C 363.498,527.157 378.498,585.824 393.5,644.5C 387.391,645.758 381.391,647.425 375.5,649.5C 360.596,593.625 345.596,537.792 330.5,482C 336.32,477.257 342.32,472.757 348.5,468.5 Z"/></g>
<g><path style="opacity:0.991" fill="#21386e" d="M 851.5,506.5 C 924.311,543.072 997.311,579.405 1070.5,615.5C 1060.06,621.559 1049.39,627.392 1038.5,633C 1037.17,633.667 1035.83,633.667 1034.5,633C 956.601,594.217 878.601,555.717 800.5,517.5C 800.168,505.814 800.501,494.148 801.5,482.5C 817.945,491.057 834.612,499.057 851.5,506.5 Z"/></g>
<g><path style="opacity:1" fill="#17447d" d="M 423.5,506.5 C 415.04,510.23 406.707,514.23 398.5,518.5C 395.356,507.595 392.356,496.595 389.5,485.5C 389.608,484.558 389.941,483.725 390.5,483C 396.354,478.636 402.021,474.136 407.5,469.5C 411.541,465.723 415.708,462.057 420,458.5C 418.584,474.67 419.751,490.67 423.5,506.5 Z"/></g>
<g><path style="opacity:0.989" fill="#21386e" d="M 1531.5,613.5 C 1540.48,615.274 1549.48,616.941 1558.5,618.5C 1548.9,623.973 1539.23,629.473 1529.5,635C 1527.63,635.985 1525.63,636.485 1523.5,636.5C 1468.47,626.939 1413.47,617.273 1358.5,607.5C 1357.4,593.041 1355.57,578.708 1353,564.5C 1344.97,569.681 1336.64,574.347 1328,578.5C 1321.67,567.833 1315.33,557.167 1309,546.5C 1299.66,551.585 1290.16,556.252 1280.5,560.5C 1231.94,553.018 1183.61,545.018 1135.5,536.5C 1147.12,531.358 1158.45,525.692 1169.5,519.5C 1194.8,523.626 1220.13,527.626 1245.5,531.5C 1268.79,535.381 1292.12,539.048 1315.5,542.5C 1317.51,525.065 1320.18,507.732 1323.5,490.5C 1335.91,513.661 1348.58,536.661 1361.5,559.5C 1368.75,545.341 1376.25,531.341 1384,517.5C 1387.71,541.274 1390.87,565.108 1393.5,589C 1439.46,597.494 1485.46,605.66 1531.5,613.5 Z"/></g>
<g><path style="opacity:0.993" fill="#1a376d" d="M 195.5,478.5 C 203.406,495.317 211.072,512.317 218.5,529.5C 206.5,534.5 194.5,539.5 182.5,544.5C 174.656,527.656 166.989,510.656 159.5,493.5C 171.5,488.5 183.5,483.5 195.5,478.5 Z"/></g>
<g><path style="opacity:1" fill="#1a376d" d="M 423.5,506.5 C 426.887,520.333 432.22,533.333 439.5,545.5C 429.91,549.628 420.577,554.295 411.5,559.5C 410.614,560.325 410.281,561.325 410.5,562.5C 405.896,548.091 401.896,533.424 398.5,518.5C 406.707,514.23 415.04,510.23 423.5,506.5 Z"/></g>
<g><path style="opacity:0.993" fill="#1d2c5e" d="M 218.5,529.5 C 240.85,578.906 263.183,628.239 285.5,677.5C 290.173,688.844 294.84,700.177 299.5,711.5C 344.7,696.767 390.033,682.433 435.5,668.5C 424.913,676.472 413.913,683.972 402.5,691C 357.31,705.423 312.143,719.923 267,734.5C 238.047,671.587 209.88,608.253 182.5,544.5C 194.5,539.5 206.5,534.5 218.5,529.5 Z"/></g>
<g><path style="opacity:0.988" fill="#1d2c5e" d="M 439.5,545.5 C 461.547,579.662 492.88,599.496 533.5,605C 584.327,608.155 628.16,592.322 665,557.5C 667.33,577.125 669.163,596.792 670.5,616.5C 690.376,614.019 710.042,611.019 729.5,607.5C 753.207,604.425 776.874,601.092 800.5,597.5C 789.388,603.892 778.055,610.059 766.5,616C 723.461,622.363 680.461,628.863 637.5,635.5C 634.919,618.951 633.086,602.284 632,585.5C 607.051,608.056 577.885,622.223 544.5,628C 485.977,634.568 441.31,613.068 410.5,563.5C 410.5,563.167 410.5,562.833 410.5,562.5C 410.281,561.325 410.614,560.325 411.5,559.5C 420.577,554.295 429.91,549.628 439.5,545.5 Z"/></g>
<g><path style="opacity:0.994" fill="#302370" d="M 1628.5,605.5 C 1617.31,611.262 1606.31,617.262 1595.5,623.5C 1594.85,622.551 1594.51,621.385 1594.5,620C 1596.76,602.188 1598.76,584.355 1600.5,566.5C 1610.33,561.086 1620,555.419 1629.5,549.5C 1630.78,548.069 1632.45,547.402 1634.5,547.5C 1632.56,566.838 1630.56,586.172 1628.5,605.5 Z"/></g>
<g><path style="opacity:0.983" fill="#1d2c5f" d="M 1629.5,549.5 C 1620,555.419 1610.33,561.086 1600.5,566.5C 1585.04,572.698 1569.04,576.698 1552.5,578.5C 1551.43,573.595 1550.76,568.595 1550.5,563.5C 1577.88,564.589 1604.21,559.923 1629.5,549.5 Z"/></g>
<g><path style="opacity:0.989" fill="#21386e" d="M 1628.5,605.5 C 1647.86,607.885 1667.2,610.552 1686.5,613.5C 1703.69,616.575 1721.03,618.908 1738.5,620.5C 1738.18,635.745 1738.51,650.911 1739.5,666C 1777.61,678.186 1815.61,690.353 1853.5,702.5C 1842.43,708.874 1831.1,714.874 1819.5,720.5C 1781.55,708.294 1743.55,696.294 1705.5,684.5C 1704.69,669.515 1704.36,654.515 1704.5,639.5C 1668.16,634.166 1631.83,628.832 1595.5,623.5C 1606.31,617.262 1617.31,611.262 1628.5,605.5 Z"/></g>
<g><path style="opacity:0.623" fill="#000000" d="M 1877.5,661.5 C 1883.17,661.5 1888.83,661.5 1894.5,661.5C 1894.67,662.822 1894.34,663.989 1893.5,665C 1891.53,665.495 1889.53,665.662 1887.5,665.5C 1887.5,671.167 1887.5,676.833 1887.5,682.5C 1886.17,682.5 1884.83,682.5 1883.5,682.5C 1883.5,676.833 1883.5,671.167 1883.5,665.5C 1881.5,665.5 1879.5,665.5 1877.5,665.5C 1877.5,664.167 1877.5,662.833 1877.5,661.5 Z"/></g>
<g><path style="opacity:0.693" fill="#000000" d="M 1895.5,661.5 C 1897.47,661.261 1899.3,661.594 1901,662.5C 1902.67,667.5 1904.33,672.5 1906,677.5C 1907.67,672.5 1909.33,667.5 1911,662.5C 1912.36,661.62 1913.86,661.286 1915.5,661.5C 1915.5,668.5 1915.5,675.5 1915.5,682.5C 1914.5,682.5 1913.5,682.5 1912.5,682.5C 1912.67,678.154 1912.5,673.821 1912,669.5C 1910.79,673.616 1909.29,677.616 1907.5,681.5C 1906.31,682.429 1904.98,682.762 1903.5,682.5C 1900.31,666.845 1898.97,666.845 1899.5,682.5C 1898.17,682.5 1896.83,682.5 1895.5,682.5C 1895.5,675.5 1895.5,668.5 1895.5,661.5 Z"/></g>
</svg>
